<?xml version="1.0" standalone="no"?>
<svg xmlns:xlink="http://www.w3.org/1999/xlink" id="wave" style="transform:rotate(180deg); transition: 0.3s" viewBox="0 0 1440 330" version="1.1" xmlns="http://www.w3.org/2000/svg"><defs><linearGradient id="sw-gradient-0" x1="0" x2="0" y1="1" y2="0"><stop stop-color="rgba(5.036, 0, 100.499, 1)" offset="0%"/><stop stop-color="rgba(45.942, 0, 93.668, 1)" offset="100%"/></linearGradient></defs><path style="transform:translate(0, 0px); opacity:1" fill="url(#sw-gradient-0)" d="M0,165L24,187C48,209,96,253,144,236.5C192,220,240,143,288,137.5C336,132,384,198,432,203.5C480,209,528,154,576,137.5C624,121,672,143,720,143C768,143,816,121,864,132C912,143,960,187,1008,198C1056,209,1104,187,1152,192.5C1200,198,1248,231,1296,220C1344,209,1392,154,1440,148.5C1488,143,1536,187,1584,198C1632,209,1680,187,1728,165C1776,143,1824,121,1872,137.5C1920,154,1968,209,2016,220C2064,231,2112,198,2160,176C2208,154,2256,143,2304,121C2352,99,2400,66,2448,71.5C2496,77,2544,121,2592,159.5C2640,198,2688,231,2736,225.5C2784,220,2832,176,2880,154C2928,132,2976,132,3024,137.5C3072,143,3120,154,3168,170.5C3216,187,3264,209,3312,220C3360,231,3408,231,3432,231L3456,231L3456,330L3432,330C3408,330,3360,330,3312,330C3264,330,3216,330,3168,330C3120,330,3072,330,3024,330C2976,330,2928,330,2880,330C2832,330,2784,330,2736,330C2688,330,2640,330,2592,330C2544,330,2496,330,2448,330C2400,330,2352,330,2304,330C2256,330,2208,330,2160,330C2112,330,2064,330,2016,330C1968,330,1920,330,1872,330C1824,330,1776,330,1728,330C1680,330,1632,330,1584,330C1536,330,1488,330,1440,330C1392,330,1344,330,1296,330C1248,330,1200,330,1152,330C1104,330,1056,330,1008,330C960,330,912,330,864,330C816,330,768,330,720,330C672,330,624,330,576,330C528,330,480,330,432,330C384,330,336,330,288,330C240,330,192,330,144,330C96,330,48,330,24,330L0,330Z"/><defs><linearGradient id="sw-gradient-1" x1="0" x2="0" y1="1" y2="0"><stop stop-color="rgba(64.6, 0, 141.481, 1)" offset="0%"/><stop stop-color="rgba(0, 50.035, 155.142, 1)" offset="100%"/></linearGradient></defs><path style="transform:translate(0, 50px); opacity:0.9" fill="url(#sw-gradient-1)" d="M0,231L24,203.5C48,176,96,121,144,104.5C192,88,240,110,288,126.5C336,143,384,154,432,170.5C480,187,528,209,576,198C624,187,672,143,720,137.5C768,132,816,165,864,187C912,209,960,220,1008,236.5C1056,253,1104,275,1152,286C1200,297,1248,297,1296,258.5C1344,220,1392,143,1440,137.5C1488,132,1536,198,1584,203.5C1632,209,1680,154,1728,137.5C1776,121,1824,143,1872,148.5C1920,154,1968,143,2016,137.5C2064,132,2112,132,2160,115.5C2208,99,2256,66,2304,82.5C2352,99,2400,165,2448,203.5C2496,242,2544,253,2592,264C2640,275,2688,286,2736,291.5C2784,297,2832,297,2880,264C2928,231,2976,165,3024,115.5C3072,66,3120,33,3168,49.5C3216,66,3264,132,3312,132C3360,132,3408,66,3432,33L3456,0L3456,330L3432,330C3408,330,3360,330,3312,330C3264,330,3216,330,3168,330C3120,330,3072,330,3024,330C2976,330,2928,330,2880,330C2832,330,2784,330,2736,330C2688,330,2640,330,2592,330C2544,330,2496,330,2448,330C2400,330,2352,330,2304,330C2256,330,2208,330,2160,330C2112,330,2064,330,2016,330C1968,330,1920,330,1872,330C1824,330,1776,330,1728,330C1680,330,1632,330,1584,330C1536,330,1488,330,1440,330C1392,330,1344,330,1296,330C1248,330,1200,330,1152,330C1104,330,1056,330,1008,330C960,330,912,330,864,330C816,330,768,330,720,330C672,330,624,330,576,330C528,330,480,330,432,330C384,330,336,330,288,330C240,330,192,330,144,330C96,330,48,330,24,330L0,330Z"/><defs><linearGradient id="sw-gradient-2" x1="0" x2="0" y1="1" y2="0"><stop stop-color="rgba(41.043, 0, 127.82, 1)" offset="0%"/><stop stop-color="rgba(13.186, 0, 111.883, 1)" offset="100%"/></linearGradient></defs><path style="transform:translate(0, 100px); opacity:0.8" fill="url(#sw-gradient-2)" d="M0,66L24,99C48,132,96,198,144,220C192,242,240,220,288,198C336,176,384,154,432,159.5C480,165,528,198,576,225.5C624,253,672,275,720,275C768,275,816,253,864,231C912,209,960,187,1008,181.5C1056,176,1104,187,1152,165C1200,143,1248,88,1296,60.5C1344,33,1392,33,1440,27.5C1488,22,1536,11,1584,22C1632,33,1680,66,1728,93.5C1776,121,1824,143,1872,165C1920,187,1968,209,2016,192.5C2064,176,2112,121,2160,110C2208,99,2256,132,2304,132C2352,132,2400,99,2448,82.5C2496,66,2544,66,2592,55C2640,44,2688,22,2736,11C2784,0,2832,0,2880,44C2928,88,2976,176,3024,192.5C3072,209,3120,154,3168,121C3216,88,3264,77,3312,110C3360,143,3408,220,3432,258.5L3456,297L3456,330L3432,330C3408,330,3360,330,3312,330C3264,330,3216,330,3168,330C3120,330,3072,330,3024,330C2976,330,2928,330,2880,330C2832,330,2784,330,2736,330C2688,330,2640,330,2592,330C2544,330,2496,330,2448,330C2400,330,2352,330,2304,330C2256,330,2208,330,2160,330C2112,330,2064,330,2016,330C1968,330,1920,330,1872,330C1824,330,1776,330,1728,330C1680,330,1632,330,1584,330C1536,330,1488,330,1440,330C1392,330,1344,330,1296,330C1248,330,1200,330,1152,330C1104,330,1056,330,1008,330C960,330,912,330,864,330C816,330,768,330,720,330C672,330,624,330,576,330C528,330,480,330,432,330C384,330,336,330,288,330C240,330,192,330,144,330C96,330,48,330,24,330L0,330Z"/><defs><linearGradient id="sw-gradient-3" x1="0" x2="0" y1="1" y2="0"><stop stop-color="rgba(0, 49.872, 89.115, 1)" offset="0%"/><stop stop-color="rgba(1.779, 0, 109.606, 1)" offset="100%"/></linearGradient></defs><path style="transform:translate(0, 150px); opacity:0.7" fill="url(#sw-gradient-3)" d="M0,99L24,104.5C48,110,96,121,144,132C192,143,240,154,288,165C336,176,384,187,432,159.5C480,132,528,66,576,55C624,44,672,88,720,110C768,132,816,132,864,115.5C912,99,960,66,1008,49.5C1056,33,1104,33,1152,38.5C1200,44,1248,55,1296,60.5C1344,66,1392,66,1440,66C1488,66,1536,66,1584,93.5C1632,121,1680,176,1728,170.5C1776,165,1824,99,1872,93.5C1920,88,1968,143,2016,154C2064,165,2112,132,2160,99C2208,66,2256,33,2304,38.5C2352,44,2400,88,2448,104.5C2496,121,2544,110,2592,110C2640,110,2688,121,2736,126.5C2784,132,2832,132,2880,126.5C2928,121,2976,110,3024,104.5C3072,99,3120,99,3168,126.5C3216,154,3264,209,3312,198C3360,187,3408,110,3432,71.5L3456,33L3456,330L3432,330C3408,330,3360,330,3312,330C3264,330,3216,330,3168,330C3120,330,3072,330,3024,330C2976,330,2928,330,2880,330C2832,330,2784,330,2736,330C2688,330,2640,330,2592,330C2544,330,2496,330,2448,330C2400,330,2352,330,2304,330C2256,330,2208,330,2160,330C2112,330,2064,330,2016,330C1968,330,1920,330,1872,330C1824,330,1776,330,1728,330C1680,330,1632,330,1584,330C1536,330,1488,330,1440,330C1392,330,1344,330,1296,330C1248,330,1200,330,1152,330C1104,330,1056,330,1008,330C960,330,912,330,864,330C816,330,768,330,720,330C672,330,624,330,576,330C528,330,480,330,432,330C384,330,336,330,288,330C240,330,192,330,144,330C96,330,48,330,24,330L0,330Z"/></svg>